<?xml version="1.0" standalone="no"?>
<svg xmlns:xlink="http://www.w3.org/1999/xlink" id="wave" style="transform:rotate(180deg); transition: 0.3s" viewBox="0 0 1440 390" version="1.1" xmlns="http://www.w3.org/2000/svg"><defs><linearGradient id="sw-gradient-0" x1="0" x2="0" y1="1" y2="0"><stop stop-color="rgba(62, 112.999, 243, 1)" offset="0%"/><stop stop-color="rgba(11, 96.283, 255, 1)" offset="100%"/></linearGradient></defs><path style="transform:translate(0, 0px); opacity:1" fill="url(#sw-gradient-0)" d="M0,78L40,65C80,52,160,26,240,32.5C320,39,400,78,480,136.5C560,195,640,273,720,260C800,247,880,143,960,97.5C1040,52,1120,65,1200,78C1280,91,1360,104,1440,110.5C1520,117,1600,117,1680,117C1760,117,1840,117,1920,136.5C2000,156,2080,195,2160,182C2240,169,2320,104,2400,97.5C2480,91,2560,143,2640,169C2720,195,2800,195,2880,188.5C2960,182,3040,169,3120,182C3200,195,3280,234,3360,260C3440,286,3520,299,3600,286C3680,273,3760,234,3840,234C3920,234,4000,273,4080,299C4160,325,4240,338,4320,331.5C4400,325,4480,299,4560,279.5C4640,260,4720,247,4800,247C4880,247,4960,260,5040,247C5120,234,5200,195,5280,169C5360,143,5440,130,5520,117C5600,104,5680,91,5720,84.5L5760,78L5760,390L5720,390C5680,390,5600,390,5520,390C5440,390,5360,390,5280,390C5200,390,5120,390,5040,390C4960,390,4880,390,4800,390C4720,390,4640,390,4560,390C4480,390,4400,390,4320,390C4240,390,4160,390,4080,390C4000,390,3920,390,3840,390C3760,390,3680,390,3600,390C3520,390,3440,390,3360,390C3280,390,3200,390,3120,390C3040,390,2960,390,2880,390C2800,390,2720,390,2640,390C2560,390,2480,390,2400,390C2320,390,2240,390,2160,390C2080,390,2000,390,1920,390C1840,390,1760,390,1680,390C1600,390,1520,390,1440,390C1360,390,1280,390,1200,390C1120,390,1040,390,960,390C880,390,800,390,720,390C640,390,560,390,480,390C400,390,320,390,240,390C160,390,80,390,40,390L0,390Z"/><defs><linearGradient id="sw-gradient-1" x1="0" x2="0" y1="1" y2="0"><stop stop-color="rgba(108.494, 174.591, 255, 1)" offset="0%"/><stop stop-color="rgba(70.526, 115.781, 253.093, 1)" offset="100%"/></linearGradient></defs><path style="transform:translate(0, 50px); opacity:0.9" fill="url(#sw-gradient-1)" d="M0,195L40,195C80,195,160,195,240,208C320,221,400,247,480,273C560,299,640,325,720,312C800,299,880,247,960,201.5C1040,156,1120,117,1200,136.5C1280,156,1360,234,1440,221C1520,208,1600,104,1680,84.5C1760,65,1840,130,1920,188.5C2000,247,2080,299,2160,312C2240,325,2320,299,2400,273C2480,247,2560,221,2640,221C2720,221,2800,247,2880,234C2960,221,3040,169,3120,175.5C3200,182,3280,247,3360,266.5C3440,286,3520,260,3600,208C3680,156,3760,78,3840,71.5C3920,65,4000,130,4080,156C4160,182,4240,169,4320,162.5C4400,156,4480,156,4560,149.5C4640,143,4720,130,4800,130C4880,130,4960,143,5040,169C5120,195,5200,234,5280,227.5C5360,221,5440,169,5520,143C5600,117,5680,117,5720,117L5760,117L5760,390L5720,390C5680,390,5600,390,5520,390C5440,390,5360,390,5280,390C5200,390,5120,390,5040,390C4960,390,4880,390,4800,390C4720,390,4640,390,4560,390C4480,390,4400,390,4320,390C4240,390,4160,390,4080,390C4000,390,3920,390,3840,390C3760,390,3680,390,3600,390C3520,390,3440,390,3360,390C3280,390,3200,390,3120,390C3040,390,2960,390,2880,390C2800,390,2720,390,2640,390C2560,390,2480,390,2400,390C2320,390,2240,390,2160,390C2080,390,2000,390,1920,390C1840,390,1760,390,1680,390C1600,390,1520,390,1440,390C1360,390,1280,390,1200,390C1120,390,1040,390,960,390C880,390,800,390,720,390C640,390,560,390,480,390C400,390,320,390,240,390C160,390,80,390,40,390L0,390Z"/><defs><linearGradient id="sw-gradient-2" x1="0" x2="0" y1="1" y2="0"><stop stop-color="rgba(23.182, 0, 255, 1)" offset="0%"/><stop stop-color="rgba(72.082, 112.436, 234.879, 1)" offset="100%"/></linearGradient></defs><path style="transform:translate(0, 100px); opacity:0.8" fill="url(#sw-gradient-2)" d="M0,195L40,182C80,169,160,143,240,136.5C320,130,400,143,480,169C560,195,640,234,720,266.5C800,299,880,325,960,286C1040,247,1120,143,1200,136.5C1280,130,1360,221,1440,221C1520,221,1600,130,1680,104C1760,78,1840,117,1920,110.5C2000,104,2080,52,2160,39C2240,26,2320,52,2400,110.5C2480,169,2560,260,2640,299C2720,338,2800,325,2880,279.5C2960,234,3040,156,3120,110.5C3200,65,3280,52,3360,65C3440,78,3520,117,3600,169C3680,221,3760,286,3840,266.5C3920,247,4000,143,4080,117C4160,91,4240,143,4320,175.5C4400,208,4480,221,4560,221C4640,221,4720,208,4800,227.5C4880,247,4960,299,5040,299C5120,299,5200,247,5280,201.5C5360,156,5440,117,5520,110.5C5600,104,5680,130,5720,143L5760,156L5760,390L5720,390C5680,390,5600,390,5520,390C5440,390,5360,390,5280,390C5200,390,5120,390,5040,390C4960,390,4880,390,4800,390C4720,390,4640,390,4560,390C4480,390,4400,390,4320,390C4240,390,4160,390,4080,390C4000,390,3920,390,3840,390C3760,390,3680,390,3600,390C3520,390,3440,390,3360,390C3280,390,3200,390,3120,390C3040,390,2960,390,2880,390C2800,390,2720,390,2640,390C2560,390,2480,390,2400,390C2320,390,2240,390,2160,390C2080,390,2000,390,1920,390C1840,390,1760,390,1680,390C1600,390,1520,390,1440,390C1360,390,1280,390,1200,390C1120,390,1040,390,960,390C880,390,800,390,720,390C640,390,560,390,480,390C400,390,320,390,240,390C160,390,80,390,40,390L0,390Z"/></svg>