<svg xmlns="http://www.w3.org/2000/svg" viewBox="0 -28 1440 320">
  <path fill="#0099ff" fill-opacity="1" d="M0,96L21.8,128C43.6,160,87,224,131,256C174.5,288,218,288,262,256C305.5,224,349,160,393,128C436.4,96,480,96,524,106.7C567.3,117,611,139,655,144C698.2,149,742,139,785,112C829.1,85,873,43,916,37.3C960,32,1004,64,1047,112C1090.9,160,1135,224,1178,213.3C1221.8,203,1265,117,1309,117.3C1352.7,117,1396,203,1418,245.3L1440,288L1440,0L1418.2,0C1396.4,0,1353,0,1309,0C1265.5,0,1222,0,1178,0C1134.5,0,1091,0,1047,0C1003.6,0,960,0,916,0C872.7,0,829,0,785,0C741.8,0,698,0,655,0C610.9,0,567,0,524,0C480,0,436,0,393,0C349.1,0,305,0,262,0C218.2,0,175,0,131,0C87.3,0,44,0,22,0L0,0Z"/>
</svg>
