<svg width="787.1150146484375px" height="124.64000549316405px" xmlns="http://www.w3.org/2000/svg" viewBox="-143.55750732421876 12.679997253417973 787.1150146484375 124.64000549316405" style="background: rgba(0, 255, 255, 0);" preserveAspectRatio="xMidYMid"><defs><filter id="editing-extrusion" x="-100%" y="-100%" width="300%" height="300%"><feFlood result="color1" flood-color="#cfd7cc"></feFlood><feConvolveMatrix order="4,4" divisor="1" kernelMatrix="1 0 0 0 0 1 0 0 0 0 1 0 0 0 0 1" in="SourceAlpha" result="extrude"></feConvolveMatrix><feComposite in="color1" in2="extrude" result="comp-extrude" operator="in"></feComposite><feOffset dx="2" dy="2" in="comp-extrude" result="offset-extrude"></feOffset><feMerge><feMergeNode in="offset-extrude"></feMergeNode><feMergeNode in="SourceGraphic"></feMergeNode></feMerge></filter></defs><g filter="url(#editing-extrusion)"><g transform="translate(-45.80999279022217, 99.95999908447266)"><path d="M15.04-33.60L29.44-33.92L29.44-30.08L24.64-29.44L30.08-5.76L38.46-33.60L44.54-34.56L52.48-5.76L57.60-29.12L53.12-30.08L53.12-33.60L67.52-33.92L67.52-30.08L63.81-29.44L56 0L48.64 0L42.56-19.84L41.02-25.98L39.68-19.84L33.60 0L26.24 0L18.24-29.12L15.04-30.08L15.04-33.60ZM69.44-48.96L81.28-49.28L81.28-29.95L81.28-29.95Q86.72-34.56 92.16-34.56L92.16-34.56L92.16-34.56Q97.60-34.56 100.16-31.52L100.16-31.52L100.16-31.52Q102.72-28.48 102.72-23.04L102.72-23.04L102.72-5.12L107.52-3.52L107.52 0L92.16 0L92.16-3.52L96.32-5.06L96.32-22.40L96.32-22.40Q96.32-25.86 95.04-27.49L95.04-27.49L95.04-27.49Q93.76-29.12 91.01-29.12L91.01-29.12L91.01-29.12Q89.66-29.12 88.38-28.77L88.38-28.77L88.38-28.77Q87.10-28.42 85.95-27.84L85.95-27.84L85.95-27.84Q84.80-27.26 83.90-26.59L83.90-26.59L83.90-26.59Q83.01-25.92 82.43-25.28L82.43-25.28L81.28-24L81.28-5.12L85.44-3.52L85.44 0L69.44 0L69.44-3.52L74.88-5.12L74.88-44.16L69.44-45.44L69.44-48.96ZM114.56-24L114.24-32L114.24-32Q121.15-34.56 126.91-34.56L126.91-34.56L126.91-34.56Q132.54-34.56 135.55-32.29L135.55-32.29L135.55-32.29Q138.56-30.02 138.56-24.64L138.56-24.64L138.56-5.12L143.68-3.84L143.68-0.32L133.76 0L132.42-4.48L132.42-4.48Q127.30 0.64 122.30 0.64L122.30 0.64L122.30 0.64Q117.31 0.64 114.82-1.86L114.82-1.86L114.82-1.86Q112.32-4.35 112.32-8.96L112.32-8.96L112.32-8.96Q112.32-18.88 127.04-18.88L127.04-18.88L132.16-18.88L132.16-24L132.16-24Q132.16-29.76 126.08-29.76L126.08-29.76L126.08-29.76Q122.62-29.76 120.38-29.06L120.38-29.06L119.62-28.80L118.72-24L114.56-24ZM132.16-9.60L132.16-14.72L127.68-14.72L127.68-14.72Q122.88-14.72 120.86-13.47L120.86-13.47L120.86-13.47Q118.85-12.22 118.85-9.60L118.85-9.60L118.85-9.60Q118.85-7.10 120.03-5.79L120.03-5.79L120.03-5.79Q121.22-4.48 123.46-4.48L123.46-4.48L123.46-4.48Q124.54-4.48 125.66-4.86L125.66-4.86L125.66-4.86Q126.78-5.25 127.84-5.82L127.84-5.82L127.84-5.82Q128.90-6.40 129.73-7.07L129.73-7.07L129.73-7.07Q130.56-7.74 131.07-8.32L131.07-8.32L132.16-9.60ZM153.28-41.66L159.68-42.94L159.68-33.60L168.96-33.60L168.96-28.80L159.68-28.80L159.68-8.26L159.68-8.26Q159.68-4.35 162.88-4.35L162.88-4.35L162.88-4.35Q164.93-4.35 167.87-5.95L167.87-5.95L169.60-2.56L169.60-2.56Q165.25 0.64 160.64 0.64L160.64 0.64L160.64 0.64Q157.38 0.64 155.33-1.50L155.33-1.50L155.33-1.50Q153.28-3.65 153.28-8.64L153.28-8.64L153.28-28.80L146.88-28.80L146.88-32.96L153.28-33.60L153.28-41.66ZM196.48-48.96L196.48-48.96L196.48-48.96Q200.64-48.96 200.64-44.16L200.64-44.16L200.64-44.16Q200.64-42.18 199.23-41.09L199.23-41.09L199.23-41.09Q197.82-40 196.22-40L196.22-40L196.22-40Q194.50-40 193.41-41.18L193.41-41.18L193.41-41.18Q192.32-42.37 192.32-44.48L192.32-44.48L192.32-44.48Q192.32-46.59 193.50-47.78L193.50-47.78L193.50-47.78Q194.69-48.96 196.48-48.96ZM188.16-33.60L200-33.92L200-5.12L204.80-3.52L204.80 0L188.16 0L188.16-3.52L193.60-5.12L193.60-28.80L188.16-30.08L188.16-33.60ZM214.72-41.66L221.12-42.94L221.12-33.60L230.40-33.60L230.40-28.80L221.12-28.80L221.12-8.26L221.12-8.26Q221.12-4.35 224.32-4.35L224.32-4.35L224.32-4.35Q226.37-4.35 229.31-5.95L229.31-5.95L231.04-2.56L231.04-2.56Q226.69 0.64 222.08 0.64L222.08 0.64L222.08 0.64Q218.82 0.64 216.77-1.50L216.77-1.50L216.77-1.50Q214.72-3.65 214.72-8.64L214.72-8.64L214.72-28.80L208.32-28.80L208.32-32.96L214.72-33.60L214.72-41.66ZM248.64-48.96L260.61-49.28L260.61-5.12L267.01-3.52L267.01 0L248.64 0L248.64-3.52L254.08-5.12L254.08-44.16L248.64-45.44L248.64-48.96ZM269.89-16.45L269.89-16.45L269.89-16.45Q269.89-20.54 271.07-23.90L271.07-23.90L271.07-23.90Q272.26-27.26 274.43-29.63L274.43-29.63L274.43-29.63Q276.61-32 279.58-33.28L279.58-33.28L279.58-33.28Q282.56-34.56 286.14-34.56L286.14-34.56L286.14-34.56Q293.31-34.56 297.28-30.02L297.28-30.02L297.28-30.02Q301.25-25.47 301.25-17.41L301.25-17.41L301.25-17.41Q301.25-13.44 300.10-10.14L300.10-10.14L300.10-10.14Q298.94-6.85 296.86-4.45L296.86-4.45L296.86-4.45Q294.78-2.05 291.81-0.70L291.81-0.70L291.81-0.70Q288.83 0.64 285.18 0.64L285.18 0.64L285.18 0.64Q277.89 0.64 273.89-3.71L273.89-3.71L273.89-3.71Q269.89-8.06 269.89-16.45ZM285.89-29.44L285.89-29.44L285.89-29.44Q276.61-29.44 276.61-16.96L276.61-16.96L276.61-16.96Q276.61-4.48 285.57-4.48L285.57-4.48L285.57-4.48Q290.24-4.48 292.38-7.68L292.38-7.68L292.38-7.68Q294.53-10.88 294.53-17.28L294.53-17.28L294.53-17.28Q294.53-29.44 285.89-29.44ZM306.37-16.45L306.37-16.45L306.37-16.45Q306.37-20.54 307.55-23.90L307.55-23.90L307.55-23.90Q308.74-27.26 310.91-29.63L310.91-29.63L310.91-29.63Q313.09-32 316.06-33.28L316.06-33.28L316.06-33.28Q319.04-34.56 322.62-34.56L322.62-34.56L322.62-34.56Q329.79-34.56 333.76-30.02L333.76-30.02L333.76-30.02Q337.73-25.47 337.73-17.41L337.73-17.41L337.73-17.41Q337.73-13.44 336.58-10.14L336.58-10.14L336.58-10.14Q335.42-6.85 333.34-4.45L333.34-4.45L333.34-4.45Q331.26-2.05 328.29-0.70L328.29-0.70L328.29-0.70Q325.31 0.64 321.66 0.64L321.66 0.64L321.66 0.64Q314.37 0.64 310.37-3.71L310.37-3.71L310.37-3.71Q306.37-8.06 306.37-16.45ZM322.37-29.44L322.37-29.44L322.37-29.44Q313.09-29.44 313.09-16.96L313.09-16.96L313.09-16.96Q313.09-4.48 322.05-4.48L322.05-4.48L322.05-4.48Q326.72-4.48 328.86-7.68L328.86-7.68L328.86-7.68Q331.01-10.88 331.01-17.28L331.01-17.28L331.01-17.28Q331.01-29.44 322.37-29.44ZM341.89-48.96L353.73-49.28L353.73-21.12L359.17-21.12L363.97-29.18L361.09-30.08L361.09-33.60L375.17-33.92L375.17-30.08L370.62-29.31L370.56-29.31L363.97-19.52L372.22-5.12L372.29-5.12L377.09-3.52L377.09 0L368.45 0L359.30-16.32L353.73-16.32L353.73-5.12L357.89-3.52L357.89 0L341.89 0L341.89-3.52L347.33-5.12L347.33-44.16L341.89-45.44L341.89-48.96ZM409.41-19.52L409.09-16.13L387.01-16L387.01-16Q387.01-10.75 389.54-7.62L389.54-7.62L389.54-7.62Q392.06-4.48 396.29-4.48L396.29-4.48L396.29-4.48Q397.70-4.48 399.10-4.74L399.10-4.74L399.10-4.74Q400.51-4.99 401.76-5.38L401.76-5.38L401.76-5.38Q403.01-5.76 404.03-6.24L404.03-6.24L404.03-6.24Q405.06-6.72 405.76-7.17L405.76-7.17L407.04-8L409.28-4.67L409.28-4.67Q407.10-2.94 405.28-1.95L405.28-1.95L405.28-1.95Q403.46-0.96 400.99-0.16L400.99-0.16L400.99-0.16Q398.53 0.64 395.65 0.64L395.65 0.64L395.65 0.64Q388.10 0.64 384.19-3.94L384.19-3.94L384.19-3.94Q380.29-8.51 380.29-16.45L380.29-16.45L380.29-16.45Q380.29-20.42 381.44-23.74L381.44-23.74L381.44-23.74Q382.59-27.07 384.67-29.47L384.67-29.47L384.67-29.47Q386.75-31.87 389.63-33.22L389.63-33.22L389.63-33.22Q392.51-34.56 395.97-34.56L395.97-34.56L395.97-34.56Q409.41-34.56 409.41-19.52L409.41-19.52ZM387.26-20.80L387.26-20.80L402.62-20.80L402.62-20.80Q402.62-24.70 400.96-27.14L400.96-27.14L400.96-27.14Q399.30-29.57 395.58-29.57L395.58-29.57L395.58-29.57Q391.94-29.57 389.76-27.10L389.76-27.10L389.76-27.10Q387.58-24.64 387.26-20.80ZM432.13-48.96L443.97-49.28L443.97-5.12L449.41-3.84L449.41-0.32L438.53 0L438.02-3.65L438.02-3.65Q433.73 0.64 427.46 0.64L427.46 0.64L427.46 0.64Q421.25 0.64 417.89-3.81L417.89-3.81L417.89-3.81Q414.53-8.26 414.53-16.13L414.53-16.13L414.53-16.13Q414.53-24.51 418.82-29.54L418.82-29.54L418.82-29.54Q423.10-34.56 431.49-34.56L431.49-34.56L431.49-34.56Q434.62-34.56 437.57-33.54L437.57-33.54L437.57-44.16L432.13-45.44L432.13-48.96ZM437.57-9.28L437.57-9.28L437.57-28.16L437.57-28.16Q435.33-29.44 430.85-29.44L430.85-29.44L430.85-29.44Q421.25-29.44 421.25-16.64L421.25-16.64L421.25-16.64Q421.25-11.01 423.20-7.74L423.20-7.74L423.20-7.74Q425.15-4.48 429.25-4.48L429.25-4.48L429.25-4.48Q432.38-4.48 434.56-6.14L434.56-6.14L434.56-6.14Q436.61-7.81 437.57-9.28ZM467.33-48.96L479.30-49.28L479.30-5.12L485.70-3.52L485.70 0L467.33 0L467.33-3.52L472.77-5.12L472.77-44.16L467.33-45.44L467.33-48.96ZM496.90-48.96L496.90-48.96L496.90-48.96Q501.06-48.96 501.06-44.16L501.06-44.16L501.06-44.16Q501.06-42.18 499.65-41.09L499.65-41.09L499.65-41.09Q498.24-40 496.64-40L496.64-40L496.64-40Q494.91-40 493.82-41.18L493.82-41.18L493.82-41.18Q492.74-42.37 492.74-44.48L492.74-44.48L492.74-44.48Q492.74-46.59 493.92-47.78L493.92-47.78L493.92-47.78Q495.10-48.96 496.90-48.96ZM488.58-33.60L500.42-33.92L500.42-5.12L505.22-3.52L505.22 0L488.58 0L488.58-3.52L494.02-5.12L494.02-28.80L488.58-30.08L488.58-33.60ZM509.06-48.96L520.90-49.28L520.90-21.12L526.34-21.12L531.14-29.18L528.26-30.08L528.26-33.60L542.34-33.92L542.34-30.08L537.79-29.31L537.73-29.31L531.14-19.52L539.39-5.12L539.46-5.12L544.26-3.52L544.26 0L535.62 0L526.46-16.32L520.90-16.32L520.90-5.12L525.06-3.52L525.06 0L509.06 0L509.06-3.52L514.50-5.12L514.50-44.16L509.06-45.44L509.06-48.96ZM576.58-19.52L576.26-16.13L554.18-16L554.18-16Q554.18-10.75 556.70-7.62L556.70-7.62L556.70-7.62Q559.23-4.48 563.46-4.48L563.46-4.48L563.46-4.48Q564.86-4.48 566.27-4.74L566.27-4.74L566.27-4.74Q567.68-4.99 568.93-5.38L568.93-5.38L568.93-5.38Q570.18-5.76 571.20-6.24L571.20-6.24L571.20-6.24Q572.22-6.72 572.93-7.17L572.93-7.17L574.21-8L576.45-4.67L576.45-4.67Q574.27-2.94 572.45-1.95L572.45-1.95L572.45-1.95Q570.62-0.96 568.16-0.16L568.16-0.16L568.16-0.16Q565.70 0.64 562.82 0.64L562.82 0.64L562.82 0.64Q555.26 0.64 551.36-3.94L551.36-3.94L551.36-3.94Q547.46-8.51 547.46-16.45L547.46-16.45L547.46-16.45Q547.46-20.42 548.61-23.74L548.61-23.74L548.61-23.74Q549.76-27.07 551.84-29.47L551.84-29.47L551.84-29.47Q553.92-31.87 556.80-33.22L556.80-33.22L556.80-33.22Q559.68-34.56 563.14-34.56L563.14-34.56L563.14-34.56Q576.58-34.56 576.58-19.52L576.58-19.52ZM554.43-20.80L554.43-20.80L569.79-20.80L569.79-20.80Q569.79-24.70 568.13-27.14L568.13-27.14L568.13-27.14Q566.46-29.57 562.75-29.57L562.75-29.57L562.75-29.57Q559.10-29.57 556.93-27.10L556.93-27.10L556.93-27.10Q554.75-24.64 554.43-20.80Z" fill="#5e9afe"></path></g></g><style>text {
  font-size: 64px;
  font-family: Arial Black;
  dominant-baseline: central;
  text-anchor: middle;
}</style></svg>