<svg id="eGBQvTZYPro1" xmlns="http://www.w3.org/2000/svg" xmlns:xlink="http://www.w3.org/1999/xlink" viewBox="0 0 300 300" shape-rendering="geometricPrecision" text-rendering="geometricPrecision" style="background-color:rgba(243,242,239,0.83)"><defs><filter id="eGBQvTZYPro2-filter" x="-150%" width="400%" y="-150%" height="400%"><feGaussianBlur id="eGBQvTZYPro2-filter-blur-0" stdDeviation="2,2" result="result"/></filter><filter id="eGBQvTZYPro3-filter" x="-150%" width="400%" y="-150%" height="400%"><feGaussianBlur id="eGBQvTZYPro3-filter-blur-0" stdDeviation="2,3" result="result"/></filter><filter id="eGBQvTZYPro4-filter" x="-150%" width="400%" y="-150%" height="400%"><feColorMatrix id="eGBQvTZYPro4-filter-hue-rotate-0" type="hueRotate" values="0" result="result"/><feGaussianBlur id="eGBQvTZYPro4-filter-blur-0" stdDeviation="2,2" result="result"/></filter></defs><path d="M57.440325,150q53.326562,39.690198,60.182834,109.776536l127.983748-6.094464q40.375825-40.375826,8.379888-89.893347C221.990858,114.271204,4.113763,110.309802,57.440325,150Z" transform="matrix(.997564 0.069756 0.293327 1.022953-86.298876-81.946042)" filter="url(#eGBQvTZYPro2-filter)" fill="#fff7ed" fill-opacity="0.7" fill-rule="evenodd" stroke="#3f5787" stroke-width="0.6" stroke-opacity="0.05"/><path d="M150,31.234129C103.910615,74.657186,116.187369,220.16252,161.851938,177.50127s154.98402-42.661249,71.566041-121.889284-64.665856-35.804977-71.566041-32.757745s34.237447-35.04317-11.851938,8.379888Z" transform="translate(37.496887-16.032677)" filter="url(#eGBQvTZYPro3-filter)" fill="#eaf4f6" fill-opacity="0.7" stroke="#3f5787" stroke-width="0.6" stroke-opacity="0.05"/><path d="M25.444388,150c-3.80904,17.179159,27.425089,13.788724,24.377857,19.121381s31.995935,11.427124,19.045199-8.379886-22.854241-44.99608-37.328593-35.067874-2.285424,7.147219-6.094463,24.326379Z" transform="translate(.000001 0.000001)" filter="url(#eGBQvTZYPro4-filter)" fill="#eaf4f6" stroke="#3f5787" stroke-width="0.6" stroke-opacity="0.05"/></svg>
