<svg width="953.8849853515625px" height="124.64000549316405px" xmlns="http://www.w3.org/2000/svg" viewBox="-226.94249267578124 12.679997253417973 953.8849853515625 124.64000549316405" style="background: rgba(0, 255, 255, 0);" preserveAspectRatio="xMidYMid"><defs><filter id="editing-extrusion" x="-100%" y="-100%" width="300%" height="300%"><feFlood result="color1" flood-color="#cfd7cc"></feFlood><feConvolveMatrix order="4,4" divisor="1" kernelMatrix="1 0 0 0 0 1 0 0 0 0 1 0 0 0 0 1" in="SourceAlpha" result="extrude"></feConvolveMatrix><feComposite in="color1" in2="extrude" result="comp-extrude" operator="in"></feComposite><feOffset dx="2" dy="2" in="comp-extrude" result="offset-extrude"></feOffset><feMerge><feMergeNode in="offset-extrude"></feMergeNode><feMergeNode in="SourceGraphic"></feMergeNode></feMerge></filter></defs><g filter="url(#editing-extrusion)"><g transform="translate(-93.9999794960022, 107.95999908447266)"><path d="M14.72-5.12L20.80-3.84L20.80 0L2.56 0L2.56-3.84L8-5.12L8-39.68L2.56-40.96L2.56-44.48L20.80-44.80L20.80-40.96L14.72-39.68L14.72-25.60L36.16-25.60L36.16-39.68L30.08-40.96L30.08-44.48L48.32-44.80L48.32-40.96L42.88-39.68L42.88-5.12L48.32-3.84L48.32 0L30.08 0L30.08-3.84L36.16-5.12L36.16-20.48L14.72-20.48L14.72-5.12ZM53.44-16.45L53.44-16.45L53.44-16.45Q53.44-20.54 54.62-23.90L54.62-23.90L54.62-23.90Q55.81-27.26 57.98-29.63L57.98-29.63L57.98-29.63Q60.16-32 63.14-33.28L63.14-33.28L63.14-33.28Q66.11-34.56 69.70-34.56L69.70-34.56L69.70-34.56Q76.86-34.56 80.83-30.02L80.83-30.02L80.83-30.02Q84.80-25.47 84.80-17.41L84.80-17.41L84.80-17.41Q84.80-13.44 83.65-10.14L83.65-10.14L83.65-10.14Q82.50-6.85 80.42-4.45L80.42-4.45L80.42-4.45Q78.34-2.05 75.36-0.70L75.36-0.70L75.36-0.70Q72.38 0.64 68.74 0.64L68.74 0.64L68.74 0.64Q61.44 0.64 57.44-3.71L57.44-3.71L57.44-3.71Q53.44-8.06 53.44-16.45ZM69.44-29.44L69.44-29.44L69.44-29.44Q60.16-29.44 60.16-16.96L60.16-16.96L60.16-16.96Q60.16-4.48 69.12-4.48L69.12-4.48L69.12-4.48Q73.79-4.48 75.94-7.68L75.94-7.68L75.94-7.68Q78.08-10.88 78.08-17.28L78.08-17.28L78.08-17.28Q78.08-29.44 69.44-29.44ZM88.96-33.60L99.84-33.92L100.35-30.34L100.35-30.34Q104.83-34.56 110.08-34.56L110.08-34.56L110.08-34.56Q116.86-34.56 120.35-30.11L120.35-30.11L120.35-30.11Q123.84-25.66 123.84-17.47L123.84-17.47L123.84-17.47Q123.84-13.50 122.78-10.18L122.78-10.18L122.78-10.18Q121.73-6.85 119.55-4.45L119.55-4.45L119.55-4.45Q117.38-2.05 114.14-0.70L114.14-0.70L114.14-0.70Q110.91 0.64 106.56 0.64L106.56 0.64L106.56 0.64Q103.87 0.64 100.80-0.26L100.80-0.26L100.80 9.92L107.52 11.20L107.52 14.72L89.28 14.72L89.28 11.20L94.40 9.92L94.40-28.80L88.96-30.08L88.96-33.60ZM100.80-24.96L100.80-24.96L100.80-5.76L100.80-5.76Q102.78-4.48 107.52-4.48L107.52-4.48L107.52-4.48Q117.12-4.48 117.12-17.28L117.12-17.28L117.12-17.28Q117.12-22.91 115.07-26.18L115.07-26.18L115.07-26.18Q113.02-29.44 108.80-29.44L108.80-29.44L108.80-29.44Q106.37-29.44 104.22-28.32L104.22-28.32L104.22-28.32Q102.08-27.20 100.80-24.96ZM158.40-19.52L158.08-16.13L136-16L136-16Q136-10.75 138.53-7.62L138.53-7.62L138.53-7.62Q141.06-4.48 145.28-4.48L145.28-4.48L145.28-4.48Q146.69-4.48 148.10-4.74L148.10-4.74L148.10-4.74Q149.50-4.99 150.75-5.38L150.75-5.38L150.75-5.38Q152-5.76 153.02-6.24L153.02-6.24L153.02-6.24Q154.05-6.72 154.75-7.17L154.75-7.17L156.03-8L158.27-4.67L158.27-4.67Q156.10-2.94 154.27-1.95L154.27-1.95L154.27-1.95Q152.45-0.96 149.98-0.16L149.98-0.16L149.98-0.16Q147.52 0.64 144.64 0.64L144.64 0.64L144.64 0.64Q137.09 0.64 133.18-3.94L133.18-3.94L133.18-3.94Q129.28-8.51 129.28-16.45L129.28-16.45L129.28-16.45Q129.28-20.42 130.43-23.74L130.43-23.74L130.43-23.74Q131.58-27.07 133.66-29.47L133.66-29.47L133.66-29.47Q135.74-31.87 138.62-33.22L138.62-33.22L138.62-33.22Q141.50-34.56 144.96-34.56L144.96-34.56L144.96-34.56Q158.40-34.56 158.40-19.52L158.40-19.52ZM136.26-20.80L136.26-20.80L151.62-20.80L151.62-20.80Q151.62-24.70 149.95-27.14L149.95-27.14L149.95-27.14Q148.29-29.57 144.58-29.57L144.58-29.57L144.58-29.57Q140.93-29.57 138.75-27.10L138.75-27.10L138.75-27.10Q136.58-24.64 136.26-20.80ZM165.12-28.80L165.12-32.96L170.88-33.60L170.88-37.44L170.88-37.44Q170.88-43.26 173.95-46.59L173.95-46.59L173.95-46.59Q177.02-49.92 182.72-49.92L182.72-49.92L182.72-49.92Q185.41-49.92 187.81-49.38L187.81-49.38L187.81-49.38Q190.21-48.83 191.23-48.26L191.23-48.26L192.32-47.68L192.32-39.68L187.84-39.68L186.88-44.80L186.88-44.80Q185.28-45.12 182.53-45.12L182.53-45.12L182.53-45.12Q177.28-45.12 177.28-38.72L177.28-38.72L177.28-33.60L185.73-33.60L185.54-28.80L177.28-28.80L177.28-5.12L183.49-3.52L183.49 0L165.44 0L165.44-3.52L170.88-5.12L170.88-28.80L165.12-28.80ZM211.52-33.60L223.36-33.92L223.36-5.12L228.80-3.84L228.80-0.32L218.24 0L217.60-4.48L217.60-4.48Q214.91-2.11 211.52-0.74L211.52-0.74L211.52-0.74Q208.13 0.64 205.76 0.64L205.76 0.64L205.76 0.64Q200.64 0.64 198.08-2.37L198.08-2.37L198.08-2.37Q195.52-5.38 195.52-10.82L195.52-10.82L195.52-28.80L190.08-30.08L190.08-33.60L201.92-33.92L201.92-11.46L201.92-11.46Q201.92-8.06 203.26-6.43L203.26-6.43L203.26-6.43Q204.61-4.80 207.36-4.80L207.36-4.80L207.36-4.80Q210.11-4.80 212.42-6.08L212.42-6.08L212.42-6.08Q214.72-7.36 215.81-8.58L215.81-8.58L216.96-9.86L216.96-28.80L211.52-30.08L211.52-33.60ZM232-48.96L243.97-49.28L243.97-5.12L250.37-3.52L250.37 0L232 0L232-3.52L237.44-5.12L237.44-44.16L232-45.44L232-48.96ZM252.29-48.96L264.26-49.28L264.26-5.12L270.66-3.52L270.66 0L252.29 0L252.29-3.52L257.73-5.12L257.73-44.16L252.29-45.44L252.29-48.96ZM271.62-33.60L286.66-33.92L286.66-30.08L282.18-29.44L289.86-7.04L296.90-29.12L292.42-30.08L292.42-33.60L307.58-33.92L307.58-30.08L303.42-29.44L294.34-4.10L294.34-4.10Q291.14 4.29 289.60 7.04L289.60 7.04L289.60 7.04Q284.80 15.30 277.06 15.36L277.06 15.36L272.96 15.04L273.54 10.56L276.74 10.56L276.74 10.56Q279.87 10.56 282.21 7.94L282.21 7.94L282.21 7.94Q284.54 5.31 286.91 0.13L286.91 0.13L275.46-29.12L271.62-30.08L271.62-33.60ZM316.54-8.32L316.54-8.32L316.54-8.32Q320.70-8.32 320.70-3.58L320.70-3.58L320.70-3.58Q320.70 2.05 313.34 9.86L313.34 9.86L310.46 7.42L310.46 7.42Q313.86 2.88 313.86 0.64L313.86 0.64L313.86 0.64Q313.86 0.32 313.66-0.16L313.66-0.16L313.66-0.16Q313.47-0.64 313.12-1.34L313.12-1.34L313.12-1.34Q312.77-2.05 312.58-2.82L312.58-2.82L312.58-2.82Q312.38-3.58 312.38-4.35L312.38-4.35L312.38-4.35Q312.38-5.89 313.54-7.10L313.54-7.10L313.54-7.10Q314.69-8.32 316.54-8.32ZM339.90-33.60L354.30-33.92L354.30-30.08L349.50-29.44L354.94-5.76L363.33-33.60L369.41-34.56L377.34-5.76L382.46-29.12L377.98-30.08L377.98-33.60L392.38-33.92L392.38-30.08L388.67-29.44L380.86 0L373.50 0L367.42-19.84L365.89-25.98L364.54-19.84L358.46 0L351.10 0L343.10-29.12L339.90-30.08L339.90-33.60ZM424.38-19.52L424.06-16.13L401.98-16L401.98-16Q401.98-10.75 404.51-7.62L404.51-7.62L404.51-7.62Q407.04-4.48 411.26-4.48L411.26-4.48L411.26-4.48Q412.67-4.48 414.08-4.74L414.08-4.74L414.08-4.74Q415.49-4.99 416.74-5.38L416.74-5.38L416.74-5.38Q417.98-5.76 419.01-6.24L419.01-6.24L419.01-6.24Q420.03-6.72 420.74-7.17L420.74-7.17L422.02-8L424.26-4.67L424.26-4.67Q422.08-2.94 420.26-1.95L420.26-1.95L420.26-1.95Q418.43-0.96 415.97-0.16L415.97-0.16L415.97-0.16Q413.50 0.64 410.62 0.64L410.62 0.64L410.62 0.64Q403.07 0.64 399.17-3.94L399.17-3.94L399.17-3.94Q395.26-8.51 395.26-16.45L395.26-16.45L395.26-16.45Q395.26-20.42 396.42-23.74L396.42-23.74L396.42-23.74Q397.57-27.07 399.65-29.47L399.65-29.47L399.65-29.47Q401.73-31.87 404.61-33.22L404.61-33.22L404.61-33.22Q407.49-34.56 410.94-34.56L410.94-34.56L410.94-34.56Q424.38-34.56 424.38-19.52L424.38-19.52ZM402.24-20.80L402.24-20.80L417.60-20.80L417.60-20.80Q417.60-24.70 415.94-27.14L415.94-27.14L415.94-27.14Q414.27-29.57 410.56-29.57L410.56-29.57L410.56-29.57Q406.91-29.57 404.74-27.10L404.74-27.10L404.74-27.10Q402.56-24.64 402.24-20.80ZM430.78-49.28L436.86-49.28L435.58-33.28L430.78-33.28L430.78-49.28ZM441.98-48.96L453.95-49.28L453.95-5.12L460.35-3.52L460.35 0L441.98 0L441.98-3.52L447.42-5.12L447.42-44.16L441.98-45.44L441.98-48.96ZM462.27-48.96L474.24-49.28L474.24-5.12L480.64-3.52L480.64 0L462.27 0L462.27-3.52L467.71-5.12L467.71-44.16L462.27-45.44L462.27-48.96ZM500.16-28.80L500.16-32.96L505.92-33.60L505.92-37.44L505.92-37.44Q505.92-43.26 508.99-46.59L508.99-46.59L508.99-46.59Q512.06-49.92 517.76-49.92L517.76-49.92L517.76-49.92Q520.45-49.92 522.85-49.38L522.85-49.38L522.85-49.38Q525.25-48.83 526.27-48.26L526.27-48.26L527.36-47.68L527.36-39.68L522.88-39.68L521.92-44.80L521.92-44.80Q520.32-45.12 517.57-45.12L517.57-45.12L517.57-45.12Q512.32-45.12 512.32-38.72L512.32-38.72L512.32-33.60L520.77-33.60L520.58-28.80L512.32-28.80L512.32-5.12L518.53-3.52L518.53 0L500.48 0L500.48-3.52L505.92-5.12L505.92-28.80L500.16-28.80ZM526.40-16.45L526.40-16.45L526.40-16.45Q526.40-20.54 527.58-23.90L527.58-23.90L527.58-23.90Q528.77-27.26 530.94-29.63L530.94-29.63L530.94-29.63Q533.12-32 536.10-33.28L536.10-33.28L536.10-33.28Q539.07-34.56 542.66-34.56L542.66-34.56L542.66-34.56Q549.82-34.56 553.79-30.02L553.79-30.02L553.79-30.02Q557.76-25.47 557.76-17.41L557.76-17.41L557.76-17.41Q557.76-13.44 556.61-10.14L556.61-10.14L556.61-10.14Q555.46-6.85 553.38-4.45L553.38-4.45L553.38-4.45Q551.30-2.05 548.32-0.70L548.32-0.70L548.32-0.70Q545.34 0.64 541.70 0.64L541.70 0.64L541.70 0.64Q534.40 0.64 530.40-3.71L530.40-3.71L530.40-3.71Q526.40-8.06 526.40-16.45ZM542.40-29.44L542.40-29.44L542.40-29.44Q533.12-29.44 533.12-16.96L533.12-16.96L533.12-16.96Q533.12-4.48 542.08-4.48L542.08-4.48L542.08-4.48Q546.75-4.48 548.90-7.68L548.90-7.68L548.90-7.68Q551.04-10.88 551.04-17.28L551.04-17.28L551.04-17.28Q551.04-29.44 542.40-29.44ZM562.88-33.60L573.44-33.92L574.02-29.25L574.02-29.25Q578.75-34.56 583.68-34.56L583.68-34.56L583.68-34.56Q586.30-34.56 588.74-33.79L588.74-33.79L589.44-33.60L589.12-24.32L584.96-24.32L584-29.12L584-29.12Q578.50-29.12 574.72-24.13L574.72-24.13L574.72-5.12L581.12-3.52L581.12 0L562.88 0L562.88-3.52L568.32-5.12L568.32-28.80L562.88-30.08L562.88-33.60ZM607.36-10.24L607.36-10.24L607.36-10.24Q604.54-10.24 602.56-10.82L602.56-10.82L602.24-4.80L612.16-4.80L612.16-4.80Q618.43-4.80 621.70-2.43L621.70-2.43L621.70-2.43Q624.96-0.06 624.96 4.74L624.96 4.74L624.96 4.74Q624.96 9.92 620.74 12.96L620.74 12.96L620.74 12.96Q616.51 16 608.32 16L608.32 16L608.32 16Q592.96 16 592.96 6.72L592.96 6.72L592.96 6.72Q592.96 2.69 597.25-0.13L597.25-0.13L597.25-0.13Q598.27-0.77 599.68-1.28L599.68-1.28L599.68-1.28Q597.95-1.54 596.90-2.50L596.90-2.50L596.90-2.50Q595.84-3.46 595.84-4.67L595.84-4.67L595.84-4.67Q595.84-6.78 598.34-10.82L598.34-10.82L599.17-12.16L599.17-12.16Q598.59-12.35 597.60-13.31L597.60-13.31L597.60-13.31Q596.61-14.27 595.97-15.23L595.97-15.23L595.97-15.23Q594.24-17.92 594.24-22.08L594.24-22.08L594.24-22.08Q594.24-28.16 598.05-31.36L598.05-31.36L598.05-31.36Q601.86-34.56 608.32-34.56L608.32-34.56L608.32-34.56Q611.90-34.56 614.02-33.66L614.02-33.66L614.72-33.34L625.92-33.60L625.92-30.08L619.71-29.18L619.71-29.18Q621.44-26.88 621.44-22.72L621.44-22.72L621.44-22.72Q621.44-16.45 617.66-13.34L617.66-13.34L617.66-13.34Q613.89-10.24 607.36-10.24ZM610.56 0L610.56 0L603.52 0L603.52 0Q603.20 0.13 602.27 0.80L602.27 0.80L602.27 0.80Q601.34 1.47 600.83 2.05L600.83 2.05L600.83 2.05Q599.36 3.71 599.36 5.76L599.36 5.76L599.36 5.76Q599.36 8.90 601.82 10.05L601.82 10.05L601.82 10.05Q604.29 11.20 609.28 11.20L609.28 11.20L609.28 11.20Q618.88 11.20 618.88 5.12L618.88 5.12L618.88 5.12Q618.88 2.18 616.80 1.09L616.80 1.09L616.80 1.09Q614.72 0 610.56 0ZM608-30.08L608-30.08L608-30.08Q600.64-30.08 600.64-22.40L600.64-22.40L600.64-22.40Q600.64-18.88 602.43-16.80L602.43-16.80L602.43-16.80Q604.22-14.72 607.62-14.72L607.62-14.72L607.62-14.72Q611.52-14.72 613.28-16.54L613.28-16.54L613.28-16.54Q615.04-18.37 615.04-22.40L615.04-22.40L615.04-22.40Q615.04-30.08 608-30.08ZM659.20-19.52L658.88-16.13L636.80-16L636.80-16Q636.80-10.75 639.33-7.62L639.33-7.62L639.33-7.62Q641.86-4.48 646.08-4.48L646.08-4.48L646.08-4.48Q647.49-4.48 648.90-4.74L648.90-4.74L648.90-4.74Q650.30-4.99 651.55-5.38L651.55-5.38L651.55-5.38Q652.80-5.76 653.82-6.24L653.82-6.24L653.82-6.24Q654.85-6.72 655.55-7.17L655.55-7.17L656.83-8L659.07-4.67L659.07-4.67Q656.90-2.94 655.07-1.95L655.07-1.95L655.07-1.95Q653.25-0.96 650.78-0.16L650.78-0.16L650.78-0.16Q648.32 0.64 645.44 0.64L645.44 0.64L645.44 0.64Q637.89 0.64 633.98-3.94L633.98-3.94L633.98-3.94Q630.08-8.51 630.08-16.45L630.08-16.45L630.08-16.45Q630.08-20.42 631.23-23.74L631.23-23.74L631.23-23.74Q632.38-27.07 634.46-29.47L634.46-29.47L634.46-29.47Q636.54-31.87 639.42-33.22L639.42-33.22L639.42-33.22Q642.30-34.56 645.76-34.56L645.76-34.56L645.76-34.56Q659.20-34.56 659.20-19.52L659.20-19.52ZM637.06-20.80L637.06-20.80L652.42-20.80L652.42-20.80Q652.42-24.70 650.75-27.14L650.75-27.14L650.75-27.14Q649.09-29.57 645.38-29.57L645.38-29.57L645.38-29.57Q641.73-29.57 639.55-27.10L639.55-27.10L639.55-27.10Q637.38-24.64 637.06-20.80ZM669.12-41.66L675.52-42.94L675.52-33.60L684.80-33.60L684.80-28.80L675.52-28.80L675.52-8.26L675.52-8.26Q675.52-4.35 678.72-4.35L678.72-4.35L678.72-4.35Q680.77-4.35 683.71-5.95L683.71-5.95L685.44-2.56L685.44-2.56Q681.09 0.64 676.48 0.64L676.48 0.64L676.48 0.64Q673.22 0.64 671.17-1.50L671.17-1.50L671.17-1.50Q669.12-3.65 669.12-8.64L669.12-8.64L669.12-28.80L662.72-28.80L662.72-32.96L669.12-33.60L669.12-41.66Z" fill="#5e9afe"></path></g></g><style>text {
  font-size: 64px;
  font-family: Arial Black;
  dominant-baseline: central;
  text-anchor: middle;
}</style></svg>