<?xml version="1.0" encoding="UTF-8" standalone="no" ?>
<!DOCTYPE svg PUBLIC "-//W3C//DTD SVG 1.1//EN" "http://www.w3.org/Graphics/SVG/1.1/DTD/svg11.dtd">
<svg xmlns="http://www.w3.org/2000/svg" xmlns:xlink="http://www.w3.org/1999/xlink" version="1.1" width="840" height="280" viewBox="0 0 840 280" xml:space="preserve">
<desc>Created with Fabric.js 3.6.6</desc>
<defs>
</defs>
<g transform="matrix(0.97 -0.26 0.26 0.97 490 167.72)"  >
<path style="stroke: none; stroke-width: 10; stroke-dasharray: none; stroke-linecap: butt; stroke-dashoffset: 0; stroke-linejoin: miter; stroke-miterlimit: 4; fill: rgb(94,154,254); fill-rule: nonzero; opacity: 1;" vector-effect="non-scaling-stroke"  transform=" translate(-295.81, 24.32)" d="M 15.04 -33.6 L 29.44 -33.92 L 29.44 -30.08 L 24.64 -29.44 L 30.08 -5.76 L 38.46 -33.6 L 44.54 -34.56 L 52.48 -5.76 L 57.6 -29.12 L 53.12 -30.08 L 53.12 -33.6 L 67.52 -33.92 L 67.52 -30.08 L 63.81 -29.44 L 56 0 L 48.64 0 L 42.56 -19.84 L 41.02 -25.98 L 39.68 -19.84 L 33.6 0 L 26.24 0 L 18.24 -29.12 L 15.04 -30.08 L 15.04 -33.6 Z M 69.44 -48.96 L 81.28 -49.28 L 81.28 -29.95 L 81.28 -29.95 Q 86.72 -34.56 92.16 -34.56 L 92.16 -34.56 L 92.16 -34.56 Q 97.6 -34.56 100.16 -31.52 L 100.16 -31.52 L 100.16 -31.52 Q 102.72 -28.48 102.72 -23.04 L 102.72 -23.04 L 102.72 -5.12 L 107.52 -3.52 L 107.52 0 L 92.16 0 L 92.16 -3.52 L 96.32 -5.06 L 96.32 -22.4 L 96.32 -22.4 Q 96.32 -25.86 95.04 -27.49 L 95.04 -27.49 L 95.04 -27.49 Q 93.76 -29.12 91.01 -29.12 L 91.01 -29.12 L 91.01 -29.12 Q 89.66 -29.12 88.38 -28.77 L 88.38 -28.77 L 88.38 -28.77 Q 87.1 -28.42 85.95 -27.84 L 85.95 -27.84 L 85.95 -27.84 Q 84.8 -27.26 83.9 -26.59 L 83.9 -26.59 L 83.9 -26.59 Q 83.01 -25.92 82.43 -25.28 L 82.43 -25.28 L 81.28 -24 L 81.28 -5.12 L 85.44 -3.52 L 85.44 0 L 69.44 0 L 69.44 -3.52 L 74.88 -5.12 L 74.88 -44.16 L 69.44 -45.44 L 69.44 -48.96 Z M 114.56 -24 L 114.24 -32 L 114.24 -32 Q 121.15 -34.56 126.91 -34.56 L 126.91 -34.56 L 126.91 -34.56 Q 132.54 -34.56 135.55 -32.29 L 135.55 -32.29 L 135.55 -32.29 Q 138.56 -30.02 138.56 -24.64 L 138.56 -24.64 L 138.56 -5.12 L 143.68 -3.84 L 143.68 -0.32 L 133.76 0 L 132.42 -4.48 L 132.42 -4.48 Q 127.3 0.64 122.3 0.64 L 122.3 0.64 L 122.3 0.64 Q 117.31 0.64 114.82 -1.86 L 114.82 -1.86 L 114.82 -1.86 Q 112.32 -4.35 112.32 -8.96 L 112.32 -8.96 L 112.32 -8.96 Q 112.32 -18.88 127.04 -18.88 L 127.04 -18.88 L 132.16 -18.88 L 132.16 -24 L 132.16 -24 Q 132.16 -29.76 126.08 -29.76 L 126.08 -29.76 L 126.08 -29.76 Q 122.62 -29.76 120.38 -29.06 L 120.38 -29.06 L 119.62 -28.8 L 118.72 -24 L 114.56 -24 Z M 132.16 -9.6 L 132.16 -14.72 L 127.68 -14.72 L 127.68 -14.72 Q 122.88 -14.72 120.86 -13.47 L 120.86 -13.47 L 120.86 -13.47 Q 118.85 -12.22 118.85 -9.6 L 118.85 -9.6 L 118.85 -9.6 Q 118.85 -7.1 120.03 -5.79 L 120.03 -5.79 L 120.03 -5.79 Q 121.22 -4.48 123.46 -4.48 L 123.46 -4.48 L 123.46 -4.48 Q 124.54 -4.48 125.66 -4.86 L 125.66 -4.86 L 125.66 -4.86 Q 126.78 -5.25 127.84 -5.82 L 127.84 -5.82 L 127.84 -5.82 Q 128.9 -6.4 129.73 -7.07 L 129.73 -7.07 L 129.73 -7.07 Q 130.56 -7.74 131.07 -8.32 L 131.07 -8.32 L 132.16 -9.6 Z M 153.28 -41.66 L 159.68 -42.94 L 159.68 -33.6 L 168.96 -33.6 L 168.96 -28.8 L 159.68 -28.8 L 159.68 -8.26 L 159.68 -8.26 Q 159.68 -4.35 162.88 -4.35 L 162.88 -4.35 L 162.88 -4.35 Q 164.93 -4.35 167.87 -5.95 L 167.87 -5.95 L 169.6 -2.56 L 169.6 -2.56 Q 165.25 0.64 160.64 0.64 L 160.64 0.64 L 160.64 0.64 Q 157.38 0.64 155.33 -1.5 L 155.33 -1.5 L 155.33 -1.5 Q 153.28 -3.65 153.28 -8.64 L 153.28 -8.64 L 153.28 -28.8 L 146.88 -28.8 L 146.88 -32.96 L 153.28 -33.6 L 153.28 -41.66 Z M 196.48 -48.96 L 196.48 -48.96 L 196.48 -48.96 Q 200.64 -48.96 200.64 -44.16 L 200.64 -44.16 L 200.64 -44.16 Q 200.64 -42.18 199.23 -41.09 L 199.23 -41.09 L 199.23 -41.09 Q 197.82 -40 196.22 -40 L 196.22 -40 L 196.22 -40 Q 194.5 -40 193.41 -41.18 L 193.41 -41.18 L 193.41 -41.18 Q 192.32 -42.37 192.32 -44.48 L 192.32 -44.48 L 192.32 -44.48 Q 192.32 -46.59 193.5 -47.78 L 193.5 -47.78 L 193.5 -47.78 Q 194.69 -48.96 196.48 -48.96 Z M 188.16 -33.6 L 200 -33.92 L 200 -5.12 L 204.8 -3.52 L 204.8 0 L 188.16 0 L 188.16 -3.52 L 193.6 -5.12 L 193.6 -28.8 L 188.16 -30.08 L 188.16 -33.6 Z M 214.72 -41.66 L 221.12 -42.94 L 221.12 -33.6 L 230.4 -33.6 L 230.4 -28.8 L 221.12 -28.8 L 221.12 -8.26 L 221.12 -8.26 Q 221.12 -4.35 224.32 -4.35 L 224.32 -4.35 L 224.32 -4.35 Q 226.37 -4.35 229.31 -5.95 L 229.31 -5.95 L 231.04 -2.56 L 231.04 -2.56 Q 226.69 0.64 222.08 0.64 L 222.08 0.64 L 222.08 0.64 Q 218.82 0.64 216.77 -1.5 L 216.77 -1.5 L 216.77 -1.5 Q 214.72 -3.65 214.72 -8.64 L 214.72 -8.64 L 214.72 -28.8 L 208.32 -28.8 L 208.32 -32.96 L 214.72 -33.6 L 214.72 -41.66 Z M 248.64 -48.96 L 260.61 -49.28 L 260.61 -5.12 L 267.01 -3.52 L 267.01 0 L 248.64 0 L 248.64 -3.52 L 254.08 -5.12 L 254.08 -44.16 L 248.64 -45.44 L 248.64 -48.96 Z M 269.89 -16.45 L 269.89 -16.45 L 269.89 -16.45 Q 269.89 -20.54 271.07 -23.9 L 271.07 -23.9 L 271.07 -23.9 Q 272.26 -27.26 274.43 -29.63 L 274.43 -29.63 L 274.43 -29.63 Q 276.61 -32 279.58 -33.28 L 279.58 -33.28 L 279.58 -33.28 Q 282.56 -34.56 286.14 -34.56 L 286.14 -34.56 L 286.14 -34.56 Q 293.31 -34.56 297.28 -30.02 L 297.28 -30.02 L 297.28 -30.02 Q 301.25 -25.47 301.25 -17.41 L 301.25 -17.41 L 301.25 -17.41 Q 301.25 -13.44 300.1 -10.14 L 300.1 -10.14 L 300.1 -10.14 Q 298.94 -6.85 296.86 -4.45 L 296.86 -4.45 L 296.86 -4.45 Q 294.78 -2.05 291.81 -0.7 L 291.81 -0.7 L 291.81 -0.7 Q 288.83 0.64 285.18 0.64 L 285.18 0.64 L 285.18 0.64 Q 277.89 0.64 273.89 -3.71 L 273.89 -3.71 L 273.89 -3.71 Q 269.89 -8.06 269.89 -16.45 Z M 285.89 -29.44 L 285.89 -29.44 L 285.89 -29.44 Q 276.61 -29.44 276.61 -16.96 L 276.61 -16.96 L 276.61 -16.96 Q 276.61 -4.48 285.57 -4.48 L 285.57 -4.48 L 285.57 -4.48 Q 290.24 -4.48 292.38 -7.68 L 292.38 -7.68 L 292.38 -7.68 Q 294.53 -10.88 294.53 -17.28 L 294.53 -17.28 L 294.53 -17.28 Q 294.53 -29.44 285.89 -29.44 Z M 306.37 -16.45 L 306.37 -16.45 L 306.37 -16.45 Q 306.37 -20.54 307.55 -23.9 L 307.55 -23.9 L 307.55 -23.9 Q 308.74 -27.26 310.91 -29.63 L 310.91 -29.63 L 310.91 -29.63 Q 313.09 -32 316.06 -33.28 L 316.06 -33.28 L 316.06 -33.28 Q 319.04 -34.56 322.62 -34.56 L 322.62 -34.56 L 322.62 -34.56 Q 329.79 -34.56 333.76 -30.02 L 333.76 -30.02 L 333.76 -30.02 Q 337.73 -25.47 337.73 -17.41 L 337.73 -17.41 L 337.73 -17.41 Q 337.73 -13.44 336.58 -10.14 L 336.58 -10.14 L 336.58 -10.14 Q 335.42 -6.85 333.34 -4.45 L 333.34 -4.45 L 333.34 -4.45 Q 331.26 -2.05 328.29 -0.7 L 328.29 -0.7 L 328.29 -0.7 Q 325.31 0.64 321.66 0.64 L 321.66 0.64 L 321.66 0.64 Q 314.37 0.64 310.37 -3.71 L 310.37 -3.71 L 310.37 -3.71 Q 306.37 -8.06 306.37 -16.45 Z M 322.37 -29.44 L 322.37 -29.44 L 322.37 -29.44 Q 313.09 -29.44 313.09 -16.96 L 313.09 -16.96 L 313.09 -16.96 Q 313.09 -4.48 322.05 -4.48 L 322.05 -4.48 L 322.05 -4.48 Q 326.72 -4.48 328.86 -7.68 L 328.86 -7.68 L 328.86 -7.68 Q 331.01 -10.88 331.01 -17.28 L 331.01 -17.28 L 331.01 -17.28 Q 331.01 -29.44 322.37 -29.44 Z M 341.89 -48.96 L 353.73 -49.28 L 353.73 -21.12 L 359.17 -21.12 L 363.97 -29.18 L 361.09 -30.08 L 361.09 -33.6 L 375.17 -33.92 L 375.17 -30.08 L 370.62 -29.31 L 370.56 -29.31 L 363.97 -19.52 L 372.22 -5.12 L 372.29 -5.12 L 377.09 -3.52 L 377.09 0 L 368.45 0 L 359.3 -16.32 L 353.73 -16.32 L 353.73 -5.12 L 357.89 -3.52 L 357.89 0 L 341.89 0 L 341.89 -3.52 L 347.33 -5.12 L 347.33 -44.16 L 341.89 -45.44 L 341.89 -48.96 Z M 409.41 -19.52 L 409.09 -16.13 L 387.01 -16 L 387.01 -16 Q 387.01 -10.75 389.54 -7.62 L 389.54 -7.62 L 389.54 -7.62 Q 392.06 -4.48 396.29 -4.48 L 396.29 -4.48 L 396.29 -4.48 Q 397.7 -4.48 399.1 -4.74 L 399.1 -4.74 L 399.1 -4.74 Q 400.51 -4.99 401.76 -5.38 L 401.76 -5.38 L 401.76 -5.38 Q 403.01 -5.76 404.03 -6.24 L 404.03 -6.24 L 404.03 -6.24 Q 405.06 -6.72 405.76 -7.17 L 405.76 -7.17 L 407.04 -8 L 409.28 -4.67 L 409.28 -4.67 Q 407.1 -2.94 405.28 -1.95 L 405.28 -1.95 L 405.28 -1.95 Q 403.46 -0.96 400.99 -0.16 L 400.99 -0.16 L 400.99 -0.16 Q 398.53 0.64 395.65 0.64 L 395.65 0.64 L 395.65 0.64 Q 388.1 0.64 384.19 -3.94 L 384.19 -3.94 L 384.19 -3.94 Q 380.29 -8.51 380.29 -16.45 L 380.29 -16.45 L 380.29 -16.45 Q 380.29 -20.42 381.44 -23.74 L 381.44 -23.74 L 381.44 -23.74 Q 382.59 -27.07 384.67 -29.47 L 384.67 -29.47 L 384.67 -29.47 Q 386.75 -31.87 389.63 -33.22 L 389.63 -33.22 L 389.63 -33.22 Q 392.51 -34.56 395.97 -34.56 L 395.97 -34.56 L 395.97 -34.56 Q 409.41 -34.56 409.41 -19.52 L 409.41 -19.52 Z M 387.26 -20.8 L 387.26 -20.8 L 402.62 -20.8 L 402.62 -20.8 Q 402.62 -24.7 400.96 -27.14 L 400.96 -27.14 L 400.96 -27.14 Q 399.3 -29.57 395.58 -29.57 L 395.58 -29.57 L 395.58 -29.57 Q 391.94 -29.57 389.76 -27.1 L 389.76 -27.1 L 389.76 -27.1 Q 387.58 -24.64 387.26 -20.8 Z M 432.13 -48.96 L 443.97 -49.28 L 443.97 -5.12 L 449.41 -3.84 L 449.41 -0.32 L 438.53 0 L 438.02 -3.65 L 438.02 -3.65 Q 433.73 0.64 427.46 0.64 L 427.46 0.64 L 427.46 0.64 Q 421.25 0.64 417.89 -3.81 L 417.89 -3.81 L 417.89 -3.81 Q 414.53 -8.26 414.53 -16.13 L 414.53 -16.13 L 414.53 -16.13 Q 414.53 -24.51 418.82 -29.54 L 418.82 -29.54 L 418.82 -29.54 Q 423.1 -34.56 431.49 -34.56 L 431.49 -34.56 L 431.49 -34.56 Q 434.62 -34.56 437.57 -33.54 L 437.57 -33.54 L 437.57 -44.16 L 432.13 -45.44 L 432.13 -48.96 Z M 437.57 -9.28 L 437.57 -9.28 L 437.57 -28.16 L 437.57 -28.16 Q 435.33 -29.44 430.85 -29.44 L 430.85 -29.44 L 430.85 -29.44 Q 421.25 -29.44 421.25 -16.64 L 421.25 -16.64 L 421.25 -16.64 Q 421.25 -11.01 423.2 -7.74 L 423.2 -7.74 L 423.2 -7.74 Q 425.15 -4.48 429.25 -4.48 L 429.25 -4.48 L 429.25 -4.48 Q 432.38 -4.48 434.56 -6.14 L 434.56 -6.14 L 434.56 -6.14 Q 436.61 -7.81 437.57 -9.28 Z M 467.33 -48.96 L 479.3 -49.28 L 479.3 -5.12 L 485.7 -3.52 L 485.7 0 L 467.33 0 L 467.33 -3.52 L 472.77 -5.12 L 472.77 -44.16 L 467.33 -45.44 L 467.33 -48.96 Z M 496.9 -48.96 L 496.9 -48.96 L 496.9 -48.96 Q 501.06 -48.96 501.06 -44.16 L 501.06 -44.16 L 501.06 -44.16 Q 501.06 -42.18 499.65 -41.09 L 499.65 -41.09 L 499.65 -41.09 Q 498.24 -40 496.64 -40 L 496.64 -40 L 496.64 -40 Q 494.91 -40 493.82 -41.18 L 493.82 -41.18 L 493.82 -41.18 Q 492.74 -42.37 492.74 -44.48 L 492.74 -44.48 L 492.74 -44.48 Q 492.74 -46.59 493.92 -47.78 L 493.92 -47.78 L 493.92 -47.78 Q 495.1 -48.96 496.9 -48.96 Z M 488.58 -33.6 L 500.42 -33.92 L 500.42 -5.12 L 505.22 -3.52 L 505.22 0 L 488.58 0 L 488.58 -3.52 L 494.02 -5.12 L 494.02 -28.8 L 488.58 -30.08 L 488.58 -33.6 Z M 509.06 -48.96 L 520.9 -49.28 L 520.9 -21.12 L 526.34 -21.12 L 531.14 -29.18 L 528.26 -30.08 L 528.26 -33.6 L 542.34 -33.92 L 542.34 -30.08 L 537.79 -29.31 L 537.73 -29.31 L 531.14 -19.52 L 539.39 -5.12 L 539.46 -5.12 L 544.26 -3.52 L 544.26 0 L 535.62 0 L 526.46 -16.32 L 520.9 -16.32 L 520.9 -5.12 L 525.06 -3.52 L 525.06 0 L 509.06 0 L 509.06 -3.52 L 514.5 -5.12 L 514.5 -44.16 L 509.06 -45.44 L 509.06 -48.96 Z M 576.58 -19.52 L 576.26 -16.13 L 554.18 -16 L 554.18 -16 Q 554.18 -10.75 556.7 -7.62 L 556.7 -7.62 L 556.7 -7.62 Q 559.23 -4.48 563.46 -4.48 L 563.46 -4.48 L 563.46 -4.48 Q 564.86 -4.48 566.27 -4.74 L 566.27 -4.74 L 566.27 -4.74 Q 567.68 -4.99 568.93 -5.38 L 568.93 -5.38 L 568.93 -5.38 Q 570.18 -5.76 571.2 -6.24 L 571.2 -6.24 L 571.2 -6.24 Q 572.22 -6.72 572.93 -7.17 L 572.93 -7.17 L 574.21 -8 L 576.45 -4.67 L 576.45 -4.67 Q 574.27 -2.94 572.45 -1.95 L 572.45 -1.95 L 572.45 -1.95 Q 570.62 -0.96 568.16 -0.16 L 568.16 -0.16 L 568.16 -0.16 Q 565.7 0.64 562.82 0.64 L 562.82 0.64 L 562.82 0.64 Q 555.26 0.64 551.36 -3.94 L 551.36 -3.94 L 551.36 -3.94 Q 547.46 -8.51 547.46 -16.45 L 547.46 -16.45 L 547.46 -16.45 Q 547.46 -20.42 548.61 -23.74 L 548.61 -23.74 L 548.61 -23.74 Q 549.76 -27.07 551.84 -29.47 L 551.84 -29.47 L 551.84 -29.47 Q 553.92 -31.87 556.8 -33.22 L 556.8 -33.22 L 556.8 -33.22 Q 559.68 -34.56 563.14 -34.56 L 563.14 -34.56 L 563.14 -34.56 Q 576.58 -34.56 576.58 -19.52 L 576.58 -19.52 Z M 554.43 -20.8 L 554.43 -20.8 L 569.79 -20.8 L 569.79 -20.8 Q 569.79 -24.7 568.13 -27.14 L 568.13 -27.14 L 568.13 -27.14 Q 566.46 -29.57 562.75 -29.57 L 562.75 -29.57 L 562.75 -29.57 Q 559.1 -29.57 556.93 -27.1 L 556.93 -27.1 L 556.93 -27.1 Q 554.75 -24.64 554.43 -20.8 Z" stroke-linecap="round" />
</g>
<g transform="matrix(0.97 -0.26 0.26 0.97 363.64 126.67)"  >
<path style="stroke: none; stroke-width: 10; stroke-dasharray: none; stroke-linecap: butt; stroke-dashoffset: 0; stroke-linejoin: miter; stroke-miterlimit: 4; fill: rgb(94,154,254); fill-rule: nonzero; opacity: 1;" vector-effect="non-scaling-stroke"  transform=" translate(-344, 16.96)" d="M 14.72 -5.12 L 20.8 -3.84 L 20.8 0 L 2.56 0 L 2.56 -3.84 L 8 -5.12 L 8 -39.68 L 2.56 -40.96 L 2.56 -44.48 L 20.8 -44.8 L 20.8 -40.96 L 14.72 -39.68 L 14.72 -25.6 L 36.16 -25.6 L 36.16 -39.68 L 30.08 -40.96 L 30.08 -44.48 L 48.32 -44.8 L 48.32 -40.96 L 42.88 -39.68 L 42.88 -5.12 L 48.32 -3.84 L 48.32 0 L 30.08 0 L 30.08 -3.84 L 36.16 -5.12 L 36.16 -20.48 L 14.72 -20.48 L 14.72 -5.12 Z M 53.44 -16.45 L 53.44 -16.45 L 53.44 -16.45 Q 53.44 -20.54 54.62 -23.9 L 54.62 -23.9 L 54.62 -23.9 Q 55.81 -27.26 57.98 -29.63 L 57.98 -29.63 L 57.98 -29.63 Q 60.16 -32 63.14 -33.28 L 63.14 -33.28 L 63.14 -33.28 Q 66.11 -34.56 69.7 -34.56 L 69.7 -34.56 L 69.7 -34.56 Q 76.86 -34.56 80.83 -30.02 L 80.83 -30.02 L 80.83 -30.02 Q 84.8 -25.47 84.8 -17.41 L 84.8 -17.41 L 84.8 -17.41 Q 84.8 -13.44 83.65 -10.14 L 83.65 -10.14 L 83.65 -10.14 Q 82.5 -6.85 80.42 -4.45 L 80.42 -4.45 L 80.42 -4.45 Q 78.34 -2.05 75.36 -0.7 L 75.36 -0.7 L 75.36 -0.7 Q 72.38 0.64 68.74 0.64 L 68.74 0.64 L 68.74 0.64 Q 61.44 0.64 57.44 -3.71 L 57.44 -3.71 L 57.44 -3.71 Q 53.44 -8.06 53.44 -16.45 Z M 69.44 -29.44 L 69.44 -29.44 L 69.44 -29.44 Q 60.16 -29.44 60.16 -16.96 L 60.16 -16.96 L 60.16 -16.96 Q 60.16 -4.48 69.12 -4.48 L 69.12 -4.48 L 69.12 -4.48 Q 73.79 -4.48 75.94 -7.68 L 75.94 -7.68 L 75.94 -7.68 Q 78.08 -10.88 78.08 -17.28 L 78.08 -17.28 L 78.08 -17.28 Q 78.08 -29.44 69.44 -29.44 Z M 88.96 -33.6 L 99.84 -33.92 L 100.35 -30.34 L 100.35 -30.34 Q 104.83 -34.56 110.08 -34.56 L 110.08 -34.56 L 110.08 -34.56 Q 116.86 -34.56 120.35 -30.11 L 120.35 -30.11 L 120.35 -30.11 Q 123.84 -25.66 123.84 -17.47 L 123.84 -17.47 L 123.84 -17.47 Q 123.84 -13.5 122.78 -10.18 L 122.78 -10.18 L 122.78 -10.18 Q 121.73 -6.85 119.55 -4.45 L 119.55 -4.45 L 119.55 -4.45 Q 117.38 -2.05 114.14 -0.7 L 114.14 -0.7 L 114.14 -0.7 Q 110.91 0.64 106.56 0.64 L 106.56 0.64 L 106.56 0.64 Q 103.87 0.64 100.8 -0.26 L 100.8 -0.26 L 100.8 9.92 L 107.52 11.2 L 107.52 14.72 L 89.28 14.72 L 89.28 11.2 L 94.4 9.92 L 94.4 -28.8 L 88.96 -30.08 L 88.96 -33.6 Z M 100.8 -24.96 L 100.8 -24.96 L 100.8 -5.76 L 100.8 -5.76 Q 102.78 -4.48 107.52 -4.48 L 107.52 -4.48 L 107.52 -4.48 Q 117.12 -4.48 117.12 -17.28 L 117.12 -17.28 L 117.12 -17.28 Q 117.12 -22.91 115.07 -26.18 L 115.07 -26.18 L 115.07 -26.18 Q 113.02 -29.44 108.8 -29.44 L 108.8 -29.44 L 108.8 -29.44 Q 106.37 -29.44 104.22 -28.32 L 104.22 -28.32 L 104.22 -28.32 Q 102.08 -27.2 100.8 -24.96 Z M 158.4 -19.52 L 158.08 -16.13 L 136 -16 L 136 -16 Q 136 -10.75 138.53 -7.62 L 138.53 -7.62 L 138.53 -7.62 Q 141.06 -4.48 145.28 -4.48 L 145.28 -4.48 L 145.28 -4.48 Q 146.69 -4.48 148.1 -4.74 L 148.1 -4.74 L 148.1 -4.74 Q 149.5 -4.99 150.75 -5.38 L 150.75 -5.38 L 150.75 -5.38 Q 152 -5.76 153.02 -6.24 L 153.02 -6.24 L 153.02 -6.24 Q 154.05 -6.72 154.75 -7.17 L 154.75 -7.17 L 156.03 -8 L 158.27 -4.67 L 158.27 -4.67 Q 156.1 -2.94 154.27 -1.95 L 154.27 -1.95 L 154.27 -1.95 Q 152.45 -0.96 149.98 -0.16 L 149.98 -0.16 L 149.98 -0.16 Q 147.52 0.64 144.64 0.64 L 144.64 0.64 L 144.64 0.64 Q 137.09 0.64 133.18 -3.94 L 133.18 -3.94 L 133.18 -3.94 Q 129.28 -8.51 129.28 -16.45 L 129.28 -16.45 L 129.28 -16.45 Q 129.28 -20.42 130.43 -23.74 L 130.43 -23.74 L 130.43 -23.74 Q 131.58 -27.07 133.66 -29.47 L 133.66 -29.47 L 133.66 -29.47 Q 135.74 -31.87 138.62 -33.22 L 138.62 -33.22 L 138.62 -33.22 Q 141.5 -34.56 144.96 -34.56 L 144.96 -34.56 L 144.96 -34.56 Q 158.4 -34.56 158.4 -19.52 L 158.4 -19.52 Z M 136.26 -20.8 L 136.26 -20.8 L 151.62 -20.8 L 151.62 -20.8 Q 151.62 -24.7 149.95 -27.14 L 149.95 -27.14 L 149.95 -27.14 Q 148.29 -29.57 144.58 -29.57 L 144.58 -29.57 L 144.58 -29.57 Q 140.93 -29.57 138.75 -27.1 L 138.75 -27.1 L 138.75 -27.1 Q 136.58 -24.64 136.26 -20.8 Z M 165.12 -28.8 L 165.12 -32.96 L 170.88 -33.6 L 170.88 -37.44 L 170.88 -37.44 Q 170.88 -43.26 173.95 -46.59 L 173.95 -46.59 L 173.95 -46.59 Q 177.02 -49.92 182.72 -49.92 L 182.72 -49.92 L 182.72 -49.92 Q 185.41 -49.92 187.81 -49.38 L 187.81 -49.38 L 187.81 -49.38 Q 190.21 -48.83 191.23 -48.26 L 191.23 -48.26 L 192.32 -47.68 L 192.32 -39.68 L 187.84 -39.68 L 186.88 -44.8 L 186.88 -44.8 Q 185.28 -45.12 182.53 -45.12 L 182.53 -45.12 L 182.53 -45.12 Q 177.28 -45.12 177.28 -38.72 L 177.28 -38.72 L 177.28 -33.6 L 185.73 -33.6 L 185.54 -28.8 L 177.28 -28.8 L 177.28 -5.12 L 183.49 -3.52 L 183.49 0 L 165.44 0 L 165.44 -3.52 L 170.88 -5.12 L 170.88 -28.8 L 165.12 -28.8 Z M 211.52 -33.6 L 223.36 -33.92 L 223.36 -5.12 L 228.8 -3.84 L 228.8 -0.32 L 218.24 0 L 217.6 -4.48 L 217.6 -4.48 Q 214.91 -2.11 211.52 -0.74 L 211.52 -0.74 L 211.52 -0.74 Q 208.13 0.64 205.76 0.64 L 205.76 0.64 L 205.76 0.64 Q 200.64 0.64 198.08 -2.37 L 198.08 -2.37 L 198.08 -2.37 Q 195.52 -5.38 195.52 -10.82 L 195.52 -10.82 L 195.52 -28.8 L 190.08 -30.08 L 190.08 -33.6 L 201.92 -33.92 L 201.92 -11.46 L 201.92 -11.46 Q 201.92 -8.06 203.26 -6.43 L 203.26 -6.43 L 203.26 -6.43 Q 204.61 -4.8 207.36 -4.8 L 207.36 -4.8 L 207.36 -4.8 Q 210.11 -4.8 212.42 -6.08 L 212.42 -6.08 L 212.42 -6.08 Q 214.72 -7.36 215.81 -8.58 L 215.81 -8.58 L 216.96 -9.86 L 216.96 -28.8 L 211.52 -30.08 L 211.52 -33.6 Z M 232 -48.96 L 243.97 -49.28 L 243.97 -5.12 L 250.37 -3.52 L 250.37 0 L 232 0 L 232 -3.52 L 237.44 -5.12 L 237.44 -44.16 L 232 -45.44 L 232 -48.96 Z M 252.29 -48.96 L 264.26 -49.28 L 264.26 -5.12 L 270.66 -3.52 L 270.66 0 L 252.29 0 L 252.29 -3.52 L 257.73 -5.12 L 257.73 -44.16 L 252.29 -45.44 L 252.29 -48.96 Z M 271.62 -33.6 L 286.66 -33.92 L 286.66 -30.08 L 282.18 -29.44 L 289.86 -7.04 L 296.9 -29.12 L 292.42 -30.08 L 292.42 -33.6 L 307.58 -33.92 L 307.58 -30.08 L 303.42 -29.44 L 294.34 -4.1 L 294.34 -4.1 Q 291.14 4.29 289.6 7.04 L 289.6 7.04 L 289.6 7.04 Q 284.8 15.3 277.06 15.36 L 277.06 15.36 L 272.96 15.04 L 273.54 10.56 L 276.74 10.56 L 276.74 10.56 Q 279.87 10.56 282.21 7.94 L 282.21 7.94 L 282.21 7.94 Q 284.54 5.31 286.91 0.13 L 286.91 0.13 L 275.46 -29.12 L 271.62 -30.08 L 271.62 -33.6 Z M 316.54 -8.32 L 316.54 -8.32 L 316.54 -8.32 Q 320.7 -8.32 320.7 -3.58 L 320.7 -3.58 L 320.7 -3.58 Q 320.7 2.05 313.34 9.86 L 313.34 9.86 L 310.46 7.42 L 310.46 7.42 Q 313.86 2.88 313.86 0.64 L 313.86 0.64 L 313.86 0.64 Q 313.86 0.32 313.66 -0.16 L 313.66 -0.16 L 313.66 -0.16 Q 313.47 -0.64 313.12 -1.34 L 313.12 -1.34 L 313.12 -1.34 Q 312.77 -2.05 312.58 -2.82 L 312.58 -2.82 L 312.58 -2.82 Q 312.38 -3.58 312.38 -4.35 L 312.38 -4.35 L 312.38 -4.35 Q 312.38 -5.89 313.54 -7.1 L 313.54 -7.1 L 313.54 -7.1 Q 314.69 -8.32 316.54 -8.32 Z M 339.9 -33.6 L 354.3 -33.92 L 354.3 -30.08 L 349.5 -29.44 L 354.94 -5.76 L 363.33 -33.6 L 369.41 -34.56 L 377.34 -5.76 L 382.46 -29.12 L 377.98 -30.08 L 377.98 -33.6 L 392.38 -33.92 L 392.38 -30.08 L 388.67 -29.44 L 380.86 0 L 373.5 0 L 367.42 -19.84 L 365.89 -25.98 L 364.54 -19.84 L 358.46 0 L 351.1 0 L 343.1 -29.12 L 339.9 -30.08 L 339.9 -33.6 Z M 424.38 -19.52 L 424.06 -16.13 L 401.98 -16 L 401.98 -16 Q 401.98 -10.75 404.51 -7.62 L 404.51 -7.62 L 404.51 -7.62 Q 407.04 -4.48 411.26 -4.48 L 411.26 -4.48 L 411.26 -4.48 Q 412.67 -4.48 414.08 -4.74 L 414.08 -4.74 L 414.08 -4.74 Q 415.49 -4.99 416.74 -5.38 L 416.74 -5.38 L 416.74 -5.38 Q 417.98 -5.76 419.01 -6.24 L 419.01 -6.24 L 419.01 -6.24 Q 420.03 -6.72 420.74 -7.17 L 420.74 -7.17 L 422.02 -8 L 424.26 -4.67 L 424.26 -4.67 Q 422.08 -2.94 420.26 -1.95 L 420.26 -1.95 L 420.26 -1.95 Q 418.43 -0.96 415.97 -0.16 L 415.97 -0.16 L 415.97 -0.16 Q 413.5 0.64 410.62 0.64 L 410.62 0.64 L 410.62 0.64 Q 403.07 0.64 399.17 -3.94 L 399.17 -3.94 L 399.17 -3.94 Q 395.26 -8.51 395.26 -16.45 L 395.26 -16.45 L 395.26 -16.45 Q 395.26 -20.42 396.42 -23.74 L 396.42 -23.74 L 396.42 -23.74 Q 397.57 -27.07 399.65 -29.47 L 399.65 -29.47 L 399.65 -29.47 Q 401.73 -31.87 404.61 -33.22 L 404.61 -33.22 L 404.61 -33.22 Q 407.49 -34.56 410.94 -34.56 L 410.94 -34.56 L 410.94 -34.56 Q 424.38 -34.56 424.38 -19.52 L 424.38 -19.52 Z M 402.24 -20.8 L 402.24 -20.8 L 417.6 -20.8 L 417.6 -20.8 Q 417.6 -24.7 415.94 -27.14 L 415.94 -27.14 L 415.94 -27.14 Q 414.27 -29.57 410.56 -29.57 L 410.56 -29.57 L 410.56 -29.57 Q 406.91 -29.57 404.74 -27.1 L 404.74 -27.1 L 404.74 -27.1 Q 402.56 -24.64 402.24 -20.8 Z M 430.78 -49.28 L 436.86 -49.28 L 435.58 -33.28 L 430.78 -33.28 L 430.78 -49.28 Z M 441.98 -48.96 L 453.95 -49.28 L 453.95 -5.12 L 460.35 -3.52 L 460.35 0 L 441.98 0 L 441.98 -3.52 L 447.42 -5.12 L 447.42 -44.16 L 441.98 -45.44 L 441.98 -48.96 Z M 462.27 -48.96 L 474.24 -49.28 L 474.24 -5.12 L 480.64 -3.52 L 480.64 0 L 462.27 0 L 462.27 -3.52 L 467.71 -5.12 L 467.71 -44.16 L 462.27 -45.44 L 462.27 -48.96 Z M 500.16 -28.8 L 500.16 -32.96 L 505.92 -33.6 L 505.92 -37.44 L 505.92 -37.44 Q 505.92 -43.26 508.99 -46.59 L 508.99 -46.59 L 508.99 -46.59 Q 512.06 -49.92 517.76 -49.92 L 517.76 -49.92 L 517.76 -49.92 Q 520.45 -49.92 522.85 -49.38 L 522.85 -49.38 L 522.85 -49.38 Q 525.25 -48.83 526.27 -48.26 L 526.27 -48.26 L 527.36 -47.68 L 527.36 -39.68 L 522.88 -39.68 L 521.92 -44.8 L 521.92 -44.8 Q 520.32 -45.12 517.57 -45.12 L 517.57 -45.12 L 517.57 -45.12 Q 512.32 -45.12 512.32 -38.72 L 512.32 -38.72 L 512.32 -33.6 L 520.77 -33.6 L 520.58 -28.8 L 512.32 -28.8 L 512.32 -5.12 L 518.53 -3.52 L 518.53 0 L 500.48 0 L 500.48 -3.52 L 505.92 -5.12 L 505.92 -28.8 L 500.16 -28.8 Z M 526.4 -16.45 L 526.4 -16.45 L 526.4 -16.45 Q 526.4 -20.54 527.58 -23.9 L 527.58 -23.9 L 527.58 -23.9 Q 528.77 -27.26 530.94 -29.63 L 530.94 -29.63 L 530.94 -29.63 Q 533.12 -32 536.1 -33.28 L 536.1 -33.28 L 536.1 -33.28 Q 539.07 -34.56 542.66 -34.56 L 542.66 -34.56 L 542.66 -34.56 Q 549.82 -34.56 553.79 -30.02 L 553.79 -30.02 L 553.79 -30.02 Q 557.76 -25.47 557.76 -17.41 L 557.76 -17.41 L 557.76 -17.41 Q 557.76 -13.44 556.61 -10.14 L 556.61 -10.14 L 556.61 -10.14 Q 555.46 -6.85 553.38 -4.45 L 553.38 -4.45 L 553.38 -4.45 Q 551.3 -2.05 548.32 -0.7 L 548.32 -0.7 L 548.32 -0.7 Q 545.34 0.64 541.7 0.64 L 541.7 0.64 L 541.7 0.64 Q 534.4 0.64 530.4 -3.71 L 530.4 -3.71 L 530.4 -3.71 Q 526.4 -8.06 526.4 -16.45 Z M 542.4 -29.44 L 542.4 -29.44 L 542.4 -29.44 Q 533.12 -29.44 533.12 -16.96 L 533.12 -16.96 L 533.12 -16.96 Q 533.12 -4.48 542.08 -4.48 L 542.08 -4.48 L 542.08 -4.48 Q 546.75 -4.48 548.9 -7.68 L 548.9 -7.68 L 548.9 -7.68 Q 551.04 -10.88 551.04 -17.28 L 551.04 -17.28 L 551.04 -17.28 Q 551.04 -29.44 542.4 -29.44 Z M 562.88 -33.6 L 573.44 -33.92 L 574.02 -29.25 L 574.02 -29.25 Q 578.75 -34.56 583.68 -34.56 L 583.68 -34.56 L 583.68 -34.56 Q 586.3 -34.56 588.74 -33.79 L 588.74 -33.79 L 589.44 -33.6 L 589.12 -24.32 L 584.96 -24.32 L 584 -29.12 L 584 -29.12 Q 578.5 -29.12 574.72 -24.13 L 574.72 -24.13 L 574.72 -5.12 L 581.12 -3.52 L 581.12 0 L 562.88 0 L 562.88 -3.52 L 568.32 -5.12 L 568.32 -28.8 L 562.88 -30.08 L 562.88 -33.6 Z M 607.36 -10.24 L 607.36 -10.24 L 607.36 -10.24 Q 604.54 -10.24 602.56 -10.82 L 602.56 -10.82 L 602.24 -4.8 L 612.16 -4.8 L 612.16 -4.8 Q 618.43 -4.8 621.7 -2.43 L 621.7 -2.43 L 621.7 -2.43 Q 624.96 -0.06 624.96 4.74 L 624.96 4.74 L 624.96 4.74 Q 624.96 9.92 620.74 12.96 L 620.74 12.96 L 620.74 12.96 Q 616.51 16 608.32 16 L 608.32 16 L 608.32 16 Q 592.96 16 592.96 6.72 L 592.96 6.72 L 592.96 6.72 Q 592.96 2.69 597.25 -0.13 L 597.25 -0.13 L 597.25 -0.13 Q 598.27 -0.77 599.68 -1.28 L 599.68 -1.28 L 599.68 -1.28 Q 597.95 -1.54 596.9 -2.5 L 596.9 -2.5 L 596.9 -2.5 Q 595.84 -3.46 595.84 -4.67 L 595.84 -4.67 L 595.84 -4.67 Q 595.84 -6.78 598.34 -10.82 L 598.34 -10.82 L 599.17 -12.16 L 599.17 -12.16 Q 598.59 -12.35 597.6 -13.31 L 597.6 -13.31 L 597.6 -13.31 Q 596.61 -14.27 595.97 -15.23 L 595.97 -15.23 L 595.97 -15.23 Q 594.24 -17.92 594.24 -22.08 L 594.24 -22.08 L 594.24 -22.08 Q 594.24 -28.16 598.05 -31.36 L 598.05 -31.36 L 598.05 -31.36 Q 601.86 -34.56 608.32 -34.56 L 608.32 -34.56 L 608.32 -34.56 Q 611.9 -34.56 614.02 -33.66 L 614.02 -33.66 L 614.72 -33.34 L 625.92 -33.6 L 625.92 -30.08 L 619.71 -29.18 L 619.71 -29.18 Q 621.44 -26.88 621.44 -22.72 L 621.44 -22.72 L 621.44 -22.72 Q 621.44 -16.45 617.66 -13.34 L 617.66 -13.34 L 617.66 -13.34 Q 613.89 -10.24 607.36 -10.24 Z M 610.56 0 L 610.56 0 L 603.52 0 L 603.52 0 Q 603.2 0.13 602.27 0.8 L 602.27 0.8 L 602.27 0.8 Q 601.34 1.47 600.83 2.05 L 600.83 2.05 L 600.83 2.05 Q 599.36 3.71 599.36 5.76 L 599.36 5.76 L 599.36 5.76 Q 599.36 8.9 601.82 10.05 L 601.82 10.05 L 601.82 10.05 Q 604.29 11.2 609.28 11.2 L 609.28 11.2 L 609.28 11.2 Q 618.88 11.2 618.88 5.12 L 618.88 5.12 L 618.88 5.12 Q 618.88 2.18 616.8 1.09 L 616.8 1.09 L 616.8 1.09 Q 614.72 0 610.56 0 Z M 608 -30.08 L 608 -30.08 L 608 -30.08 Q 600.64 -30.08 600.64 -22.4 L 600.64 -22.4 L 600.64 -22.4 Q 600.64 -18.88 602.43 -16.8 L 602.43 -16.8 L 602.43 -16.8 Q 604.22 -14.72 607.62 -14.72 L 607.62 -14.72 L 607.62 -14.72 Q 611.52 -14.72 613.28 -16.54 L 613.28 -16.54 L 613.28 -16.54 Q 615.04 -18.37 615.04 -22.4 L 615.04 -22.4 L 615.04 -22.4 Q 615.04 -30.08 608 -30.08 Z M 659.2 -19.52 L 658.88 -16.13 L 636.8 -16 L 636.8 -16 Q 636.8 -10.75 639.33 -7.62 L 639.33 -7.62 L 639.33 -7.62 Q 641.86 -4.48 646.08 -4.48 L 646.08 -4.48 L 646.08 -4.48 Q 647.49 -4.48 648.9 -4.74 L 648.9 -4.74 L 648.9 -4.74 Q 650.3 -4.99 651.55 -5.38 L 651.55 -5.38 L 651.55 -5.38 Q 652.8 -5.76 653.82 -6.24 L 653.82 -6.24 L 653.82 -6.24 Q 654.85 -6.72 655.55 -7.17 L 655.55 -7.17 L 656.83 -8 L 659.07 -4.67 L 659.07 -4.67 Q 656.9 -2.94 655.07 -1.95 L 655.07 -1.95 L 655.07 -1.95 Q 653.25 -0.96 650.78 -0.16 L 650.78 -0.16 L 650.78 -0.16 Q 648.32 0.64 645.44 0.64 L 645.44 0.64 L 645.44 0.64 Q 637.89 0.64 633.98 -3.94 L 633.98 -3.94 L 633.98 -3.94 Q 630.08 -8.51 630.08 -16.45 L 630.08 -16.45 L 630.08 -16.45 Q 630.08 -20.42 631.23 -23.74 L 631.23 -23.74 L 631.23 -23.74 Q 632.38 -27.07 634.46 -29.47 L 634.46 -29.47 L 634.46 -29.47 Q 636.54 -31.87 639.42 -33.22 L 639.42 -33.22 L 639.42 -33.22 Q 642.3 -34.56 645.76 -34.56 L 645.76 -34.56 L 645.76 -34.56 Q 659.2 -34.56 659.2 -19.52 L 659.2 -19.52 Z M 637.06 -20.8 L 637.06 -20.8 L 652.42 -20.8 L 652.42 -20.8 Q 652.42 -24.7 650.75 -27.14 L 650.75 -27.14 L 650.75 -27.14 Q 649.09 -29.57 645.38 -29.57 L 645.38 -29.57 L 645.38 -29.57 Q 641.73 -29.57 639.55 -27.1 L 639.55 -27.1 L 639.55 -27.1 Q 637.38 -24.64 637.06 -20.8 Z M 669.12 -41.66 L 675.52 -42.94 L 675.52 -33.6 L 684.8 -33.6 L 684.8 -28.8 L 675.52 -28.8 L 675.52 -8.26 L 675.52 -8.26 Q 675.52 -4.35 678.72 -4.35 L 678.72 -4.35 L 678.72 -4.35 Q 680.77 -4.35 683.71 -5.95 L 683.71 -5.95 L 685.44 -2.56 L 685.44 -2.56 Q 681.09 0.64 676.48 0.64 L 676.48 0.64 L 676.48 0.64 Q 673.22 0.64 671.17 -1.5 L 671.17 -1.5 L 671.17 -1.5 Q 669.12 -3.65 669.12 -8.64 L 669.12 -8.64 L 669.12 -28.8 L 662.72 -28.8 L 662.72 -32.96 L 669.12 -33.6 L 669.12 -41.66 Z" stroke-linecap="round" />
</g>
</svg>